<svg xmlns="http://www.w3.org/2000/svg" viewBox="0 0 710.49 367.76"><defs><style>.cls-1{fill:#1976d2;}</style></defs><g id="Layer_2" data-name="Layer 2"><g id="Layer_1-2" data-name="Layer 1"><path class="cls-1" d="M355.49,129.54l-34.75,37.39-42.61-34.08-113.25,104-2.59-2.2c1.25-2.47,2.32-5.06,3.77-7.41q60.66-98.56,121.38-197.1c3.77-6.13,6.87-12.72,11.05-18.53,10.89-15.14,27.54-15.73,38-.33,14.32,21.13,27.33,43.14,40.75,64.86q72.53,117.3,144.91,234.69a96.86,96.86,0,0,1,9.83,21C465.94,271.33,409.38,202.61,355.49,129.54Z"/><path class="cls-1" d="M707.55,367.76A1821.36,1821.36,0,0,1,567,203l-13.77,18.34-2.38-1.54-4.67-67.84L483.43,218.7c-6.73-10.48-12.94-19.61-18.43-29.17-1-1.73.14-5.84,1.68-7.71,18.74-22.74,37.75-45.26,56.68-67.84,3-3.54,5.25-9,9-10.22,4.57-1.5,11.4-1.14,15.24,1.44,5,3.31,8.33,9.34,11.64,14.67q72.1,116,143.94,232.21c2.73,4.42,4.91,9.18,7.35,13.79Z"/><path class="cls-1" d="M102,152.28V223l-28.2-26.15L1.45,261.89,0,260.82c6.7-11,13.22-22.2,20.14-33.1q35.19-55.49,70.65-110.79c13.67-21.36,21.46-21.83,38-2.51,10.16,11.87,20.05,24,30.45,35.63,4.92,5.51,4.87,9.17-1.16,13.86-8.26,6.44-15.81,13.8-24.89,21.85l-28.81-33.5Z"/></g></g></svg>